inDegrees=no
num_controls=7
num_derivatives=13
num_iterations=130
num_multipliers=7
num_parameters=0
num_slacks=7
num_states=26
objective=5.111462
objective_accelerations=0.722020
objective_balance=0.022899
objective_effort=0.233953
objective_height=4.055371
objective_ligament=0.077220
solver_duration=1502.334013
status=Solve_Succeeded
success=true
DataType=double
version=3
OpenSimVersion=4.4-2022-07-23-0e9fedc
endheader
time	/jointset/ground_pelvis/pelvis_tilt/value	/jointset/ground_pelvis/pelvis_tx/value	/jointset/ground_pelvis/pelvis_ty/value	/jointset/hip_l/hip_flexion_l/value	/jointset/hip_l/hip_adduction_l/value	/jointset/hip_l/hip_rotation_l/value	/jointset/back/lumbar_extension/value	/jointset/patellofemoral_l/patellar_flexion_l/value	/jointset/knee_l/knee_flexion_l/value	/jointset/knee_l/knee_adduction_l/value	/jointset/knee_l/knee_rotation_l/value	/jointset/ankle_l/ankle_angle_l/value	/jointset/subtalar_l/subtalar_angle_l/value	/jointset/ground_pelvis/pelvis_tilt/speed	/jointset/ground_pelvis/pelvis_tx/speed	/jointset/ground_pelvis/pelvis_ty/speed	/jointset/hip_l/hip_flexion_l/speed	/jointset/hip_l/hip_adduction_l/speed	/jointset/hip_l/hip_rotation_l/speed	/jointset/back/lumbar_extension/speed	/jointset/patellofemoral_l/patellar_flexion_l/speed	/jointset/knee_l/knee_flexion_l/speed	/jointset/knee_l/knee_adduction_l/speed	/jointset/knee_l/knee_rotation_l/speed	/jointset/ankle_l/ankle_angle_l/speed	/jointset/subtalar_l/subtalar_angle_l/speed	/forceset/tau_hip_flexion_l	/forceset/tau_hip_adduction_l	/forceset/tau_hip_rotation_l	/forceset/tau_knee_flexion_l	/forceset/tau_ankle_angle_l	/forceset/tau_subtalar_angle_l	/forceset/tau_lumbar_extension	lambda_cid13_p0	lambda_cid13_p1	lambda_cid13_p2	lambda_cid13_p3	lambda_cid13_p4	lambda_cid13_p5	lambda_cid14_p0	/jointset/ground_pelvis/pelvis_tilt/accel	/jointset/ground_pelvis/pelvis_tx/accel	/jointset/ground_pelvis/pelvis_ty/accel	/jointset/hip_l/hip_flexion_l/accel	/jointset/hip_l/hip_adduction_l/accel	/jointset/hip_l/hip_rotation_l/accel	/jointset/back/lumbar_extension/accel	/jointset/patellofemoral_l/patellar_flexion_l/accel	/jointset/knee_l/knee_flexion_l/accel	/jointset/knee_l/knee_adduction_l/accel	/jointset/knee_l/knee_rotation_l/accel	/jointset/ankle_l/ankle_angle_l/accel	/jointset/subtalar_l/subtalar_angle_l/accel	gamma_cid13_p0	gamma_cid13_p1	gamma_cid13_p2	gamma_cid13_p3	gamma_cid13_p4	gamma_cid13_p5	gamma_cid14_p0
1.5	-0.5666336541974689	-0.04701177836923141	0.782828256302016	1.243738593647944	-0.3542612616954367	-0.1002148989058112	-0.3459574694847981	0.5995427027854217	0.5995427027856156	-0.0702415369271133	-0.174181261593117	0.01791154772430584	0.07278403281305638	1.085033261335211	0.511649693107504	0.5057622887761977	-2.916999602384436	-0.02172068761771379	-0.536308352300662	0.5949935562706832	-1.626960682861923	-1.626960682861888	-0.2452305519908438	0.01096358576751251	0.08242223994337097	0.008180113067381993	-0.206204461255426	0.01365357656664291	0.01029009786294326	-0.07234501416135236	0.04052693900271769	0.007757627214970853	0.1677998866408578	-10.90371239721635	-3.605364488325545	2.744332635685753	-8.210326864962962	-429.1276680314392	-60.05506668509809	-19.08882363963524	0.8569179824714995	0.9144925330393991	-0.6574182336243125	-1.804063048006555	0.3053072141047619	-0.2631480276900609	1.917197097473245	-0.6469840629015631	-0.6469840629015645	-0.2832235169756031	0.2649095150733385	0.2496801388683043	0.388620245044526	1.571890042553427e-07	1.310267232660445e-06	-1.066816384639669e-06	2.081831869420928e-07	5.669145757287934e-07	-2.595768988913647e-07	3.989533431983399e-07
1.51	-0.5557409521336483	-0.04185009371179764	0.7878520037914242	1.214480384300386	-0.3544650512552648	-0.1055914248015973	-0.3399138051220971	0.5832424379818788	0.5832424379821404	-0.07271109464440047	-0.1740604192445854	0.01874781755325504	0.07288325037014072	1.093331630708799	0.5206167585869136	0.4988769399457774	-2.934243654212302	-0.01902970656132135	-0.5389218600446826	0.6136585794916555	-1.632881023023357	-1.632881023023345	-0.2486604685547689	0.01323834341389694	0.08483727587490944	0.01167263198893273	-0.1992990229091523	0.01306684549741612	0.01077637992903677	-0.070558441756828	0.03713193026289453	0.006575718501801522	0.162675978862053	-11.85065695669346	-3.13842990234715	2.912240986170329	-7.424949748854784	-425.0979122224208	-59.61004144429502	-19.6674369170429	0.7900150676508381	0.8772882368614379	-0.7205139333962569	-1.624726827208396	0.2519899050597998	-0.2488736056967972	1.82904441750831	-0.5329529964983164	-0.5329529965020225	-0.3695696525713218	0.2135121745878228	0.2382902450835887	0.3308505207432181	1.519457574047228e-07	1.394309231023835e-06	-1.059552996110088e-06	2.247263219748891e-07	5.875900510365739e-07	-2.21278559884519e-07	4.069871000789717e-07
1.52	-0.5447705226455158	-0.03660084346327693	0.7928036136473986	1.185061704319131	-0.354641731733789	-0.1109917700664379	-0.3336859126305669	0.5668892909761124	0.566889290976209	-0.07521429031294648	-0.17391587866234	0.01960841272647731	0.0730176496774476	1.100578746196316	0.5291628113248916	0.4913347620895412	-2.949093729121477	-0.0162988713587881	-0.5410722261062364	0.6318391820366123	-1.637537123334143	-1.637537123334155	-0.2519581421775026	0.01570323246693841	0.08728730879793715	0.01521646311179994	-0.1923935845630255	0.01248011442809526	0.01126266199376412	-0.0687718693522309	0.03373692152308515	0.005393809788555746	0.1575520710831129	-12.80091919880237	-2.671989270397757	3.081456604841953	-6.634690369872854	-421.1198247786431	-59.23820067284018	-20.22650399901283	0.6466672052570213	0.8302899847533116	-0.7887840387874868	-1.325267664268298	0.313278043332915	-0.1705196911968162	1.820312962269997	-0.3941360927720022	-0.3941360927719839	-0.2567749287373758	0.3029357964046402	0.2566795371664369	0.3988826853078498	1.440946242863484e-07	1.496354266964836e-06	-1.027850744450792e-06	2.433650938064129e-07	6.067937427645809e-07	-1.812509528682882e-07	4.135760412583024e-07
1.53	-0.5337328512544788	-0.03126835417733196	0.7976765871928656	1.155506529759452	-0.3547908747628816	-0.1164118288384015	-0.3272789652595913	0.5504959440145938	0.5504959440148265	-0.07774948085697356	-0.173746142212874	0.02049364111981175	0.07318776838326783	1.106772208328969	0.5372512713764008	0.4831554065184342	-2.961517678658089	-0.01352062512632051	-0.5428655992821042	0.649445425942805	-1.64091010666421	-1.64091010666423	-0.2550444030754634	0.01827394858833449	0.08976044186431011	0.01881735167778406	-0.1854919123049685	0.01162187658233274	0.01172638003985761	-0.06700479732017856	0.03031219649764644	0.004149959523637528	0.1523712185702493	-13.77215460104961	-2.175603508627752	3.246615055169016	-5.777424555073829	-417.2398019752652	-58.85036668565891	-20.76294837745846	0.578231488494688	0.7856129229637188	-0.848065613549981	-1.137377668381057	0.2612781227968196	-0.1723210503840669	1.715050172236304	-0.2756393769684363	-0.2756393769696296	-0.3289436794420543	0.2383713858222118	0.2429891845972996	0.3420486339682212	1.334726120084851e-07	1.617527530332048e-06	-9.701822007161728e-07	2.642304797365847e-07	6.244336644390782e-07	-1.393859985920855e-07	4.186298657550008e-07
